<svg width="54" height="32" viewBox="0 0 54 32" fill="none" xmlns="http://www.w3.org/2000/svg">
<g clip-path="url(#clip0_54_253)">
<path d="M54 0H0V32H54V0Z" fill="white"/>
<path d="M24.8182 19.267V18.9773C24.8239 17.983 24.9119 17.1903 25.0824 16.5994C25.2585 16.0085 25.5142 15.5312 25.8494 15.1676C26.1847 14.804 26.5881 14.4744 27.0597 14.179C27.4119 13.9517 27.7273 13.7159 28.0057 13.4716C28.2841 13.2273 28.5057 12.9574 28.6705 12.6619C28.8352 12.3608 28.9176 12.0256 28.9176 11.6562C28.9176 11.2642 28.8239 10.9205 28.6364 10.625C28.4489 10.3295 28.196 10.1023 27.8778 9.94318C27.5653 9.78409 27.2188 9.70454 26.8381 9.70454C26.4688 9.70454 26.1193 9.78693 25.7898 9.9517C25.4602 10.1108 25.1903 10.3494 24.9801 10.6676C24.7699 10.9801 24.6563 11.3693 24.6392 11.8352H21.1619C21.1903 10.6989 21.4631 9.76136 21.9801 9.02273C22.4972 8.27841 23.1818 7.72443 24.0341 7.36079C24.8864 6.99148 25.8267 6.80682 26.8551 6.80682C27.9858 6.80682 28.9858 6.99432 29.8551 7.36932C30.7244 7.73864 31.4063 8.27557 31.9006 8.98011C32.3949 9.68466 32.642 10.5341 32.642 11.5284C32.642 12.1932 32.5313 12.7841 32.3097 13.3011C32.0938 13.8125 31.7898 14.267 31.3977 14.6648C31.0057 15.0568 30.5426 15.4119 30.0085 15.7301C29.5597 15.9972 29.1903 16.2756 28.9006 16.5653C28.6165 16.8551 28.4034 17.1903 28.2614 17.571C28.125 17.9517 28.054 18.4205 28.0483 18.9773V19.267H24.8182ZM26.5057 24.7216C25.9375 24.7216 25.4517 24.5227 25.0483 24.125C24.6506 23.7216 24.4545 23.2386 24.4602 22.6761C24.4545 22.1193 24.6506 21.642 25.0483 21.2443C25.4517 20.8466 25.9375 20.6477 26.5057 20.6477C27.0455 20.6477 27.5199 20.8466 27.929 21.2443C28.3381 21.642 28.5455 22.1193 28.5511 22.6761C28.5455 23.0511 28.446 23.3949 28.2528 23.7074C28.0653 24.0142 27.8182 24.2614 27.5114 24.4489C27.2045 24.6307 26.8693 24.7216 26.5057 24.7216Z" fill="#1C1B1F"/>
</g>
<defs>
<clipPath id="clip0_54_253">
<rect width="54" height="32" fill="white"/>
</clipPath>
</defs>
</svg>
