<svg width="54" height="32" viewBox="0 0 54 32" fill="none" xmlns="http://www.w3.org/2000/svg">
<g clip-path="url(#clip0_49_228)">
<rect width="54" height="32" fill="white"/>
<rect x="40" width="14" height="32" fill="#E30000"/>
<rect width="14" height="32" fill="#E30000"/>
<g clip-path="url(#clip1_49_228)">
<path d="M26.6427 25L26.8213 21.5737C26.8239 21.5174 26.8138 21.4611 26.7918 21.4092C26.7698 21.3573 26.7365 21.3109 26.6942 21.2736C26.6519 21.2363 26.6018 21.2089 26.5475 21.1935C26.4932 21.1781 26.4362 21.1751 26.3806 21.1846L22.9702 21.7841L23.4307 20.5136C23.4494 20.4631 23.4518 20.408 23.4376 20.356C23.4233 20.304 23.3932 20.2578 23.3513 20.2238L19.6154 17.1985L20.457 16.8055C20.5139 16.7786 20.559 16.7319 20.5838 16.6742C20.6087 16.6164 20.6116 16.5516 20.592 16.4918L19.8536 14.2208L22.0054 14.6774C22.0637 14.6896 22.1244 14.6812 22.1773 14.6537C22.2301 14.6262 22.2718 14.5813 22.2953 14.5266L22.7121 13.5459L24.3915 15.3484C24.4299 15.3889 24.4804 15.4159 24.5355 15.4252C24.5905 15.4346 24.647 15.4259 24.6967 15.4004C24.7463 15.3749 24.7864 15.334 24.8108 15.2838C24.8353 15.2336 24.8428 15.1769 24.8322 15.1221L24.0223 10.9454L25.3206 11.6958C25.351 11.7136 25.3849 11.7251 25.4199 11.7293C25.455 11.7336 25.4906 11.7306 25.5245 11.7205C25.5583 11.7105 25.5898 11.6936 25.6169 11.6709C25.6439 11.6482 25.6661 11.6202 25.6819 11.5886L27 9L28.3181 11.5886C28.3339 11.6202 28.356 11.6482 28.3831 11.6709C28.4102 11.6936 28.4416 11.7105 28.4755 11.7205C28.5094 11.7306 28.5449 11.7336 28.58 11.7293C28.6151 11.7251 28.6489 11.7136 28.6794 11.6958L29.9776 10.9454L29.1677 15.1221C29.1572 15.1769 29.1647 15.2336 29.1891 15.2838C29.2136 15.334 29.2536 15.3749 29.3032 15.4004C29.3529 15.4259 29.4095 15.4346 29.4645 15.4252C29.5195 15.4159 29.57 15.3889 29.6084 15.3484L31.2878 13.5459L31.7047 14.5266C31.7282 14.5813 31.7699 14.6262 31.8227 14.6537C31.8755 14.6812 31.9362 14.6896 31.9945 14.6774L34.1464 14.2208L33.4079 16.4918C33.3883 16.5516 33.3913 16.6164 33.4161 16.6742C33.441 16.7319 33.4861 16.7786 33.5429 16.8055L34.3846 17.1985L30.6486 20.2238C30.6068 20.2578 30.5766 20.304 30.5624 20.356C30.5481 20.408 30.5505 20.4631 30.5692 20.5136L31.0297 21.7841L27.6193 21.1846C27.5637 21.1751 27.5067 21.1781 27.4524 21.1935C27.3982 21.2089 27.3481 21.2363 27.3058 21.2736C27.2635 21.3109 27.2301 21.3573 27.2081 21.4092C27.1861 21.4611 27.176 21.5174 27.1786 21.5737L27.3573 25H26.6427Z" fill="#E30000"/>
</g>
</g>
<defs>
<clipPath id="clip0_49_228">
<rect width="54" height="32" fill="white"/>
</clipPath>
<clipPath id="clip1_49_228">
<rect width="16" height="16" fill="white" transform="translate(19 9)"/>
</clipPath>
</defs>
</svg>
