<svg width="32" height="32" viewBox="0 0 32 32" fill="none" xmlns="http://www.w3.org/2000/svg">
<mask id="mask0_39_173" style="mask-type:alpha" maskUnits="userSpaceOnUse" x="0" y="0" width="32" height="32">
<rect width="32" height="32" fill="#D9D9D9"/>
</mask>
<g mask="url(#mask0_39_173)">
<path d="M18.6667 27.6333V24.9C20.6667 24.3222 22.2778 23.2111 23.5 21.5667C24.7222 19.9222 25.3333 18.0556 25.3333 15.9667C25.3333 13.8778 24.7222 12.0111 23.5 10.3667C22.2778 8.72223 20.6667 7.61111 18.6667 7.03334V4.3C21.4222 4.92223 23.6667 6.31667 25.4 8.48334C27.1333 10.65 28 13.1444 28 15.9667C28 18.7889 27.1333 21.2833 25.4 23.45C23.6667 25.6167 21.4222 27.0111 18.6667 27.6333ZM4 20V12H9.33333L16 5.33334V26.6667L9.33333 20H4ZM18.6667 21.3333V10.6C19.7111 11.0889 20.5278 11.8222 21.1167 12.8C21.7056 13.7778 22 14.8444 22 16C22 17.1333 21.7056 18.1833 21.1167 19.15C20.5278 20.1167 19.7111 20.8444 18.6667 21.3333ZM13.3333 11.8L10.4667 14.6667H6.66667V17.3333H10.4667L13.3333 20.2V11.8Z" fill="#F8F8F8"/>
</g>
</svg>
