<svg width="32" height="32" viewBox="0 0 32 32" fill="none" xmlns="http://www.w3.org/2000/svg">
<mask id="mask0_39_153" style="mask-type:alpha" maskUnits="userSpaceOnUse" x="0" y="0" width="32" height="32">
<rect width="32" height="32" fill="#D9D9D9"/>
</mask>
<g mask="url(#mask0_39_153)">
<path d="M6.79992 21.4C6.31103 20.5555 5.94436 19.6889 5.69992 18.8C5.45547 17.9111 5.33325 17 5.33325 16.0666C5.33325 13.0889 6.36659 10.5555 8.43325 8.46665C10.4999 6.37776 13.0221 5.33331 15.9999 5.33331H16.2333L14.0999 3.19998L15.9666 1.33331L21.2999 6.66665L15.9666 12L14.0999 10.1333L16.2333 7.99998H15.9999C13.7777 7.99998 11.8888 8.78331 10.3333 10.35C8.7777 11.9166 7.99992 13.8222 7.99992 16.0666C7.99992 16.6444 8.06659 17.2111 8.19992 17.7666C8.33325 18.3222 8.53325 18.8666 8.79992 19.4L6.79992 21.4ZM16.0333 30.6666L10.6999 25.3333L16.0333 20L17.8999 21.8666L15.7666 24H15.9999C18.2221 24 20.111 23.2166 21.6666 21.65C23.2221 20.0833 23.9999 18.1778 23.9999 15.9333C23.9999 15.3555 23.9333 14.7889 23.7999 14.2333C23.6666 13.6778 23.4666 13.1333 23.1999 12.6L25.1999 10.6C25.6888 11.4444 26.0555 12.3111 26.2999 13.2C26.5444 14.0889 26.6666 15 26.6666 15.9333C26.6666 18.9111 25.6333 21.4444 23.5666 23.5333C21.4999 25.6222 18.9777 26.6666 15.9999 26.6666H15.7666L17.8999 28.8L16.0333 30.6666Z" fill="#1C1B1F"/>
</g>
</svg>
