<svg width="32" height="32" viewBox="0 0 32 32" fill="none" xmlns="http://www.w3.org/2000/svg">
<mask id="mask0_41_205" style="mask-type:alpha" maskUnits="userSpaceOnUse" x="0" y="0" width="32" height="32">
<rect width="32" height="32" fill="#D9D9D9"/>
</mask>
<g mask="url(#mask0_41_205)">
<path d="M16 18.6667C14.8888 18.6667 13.9444 18.2778 13.1666 17.5C12.3888 16.7222 12 15.7778 12 14.6667V6.66666C12 5.55555 12.3888 4.6111 13.1666 3.83332C13.9444 3.05555 14.8888 2.66666 16 2.66666C17.1111 2.66666 18.0555 3.05555 18.8333 3.83332C19.6111 4.6111 20 5.55555 20 6.66666V14.6667C20 15.7778 19.6111 16.7222 18.8333 17.5C18.0555 18.2778 17.1111 18.6667 16 18.6667ZM14.6666 28V23.9C12.3555 23.5889 10.4444 22.5555 8.93329 20.8C7.42218 19.0444 6.66663 17 6.66663 14.6667H9.33329C9.33329 16.5111 9.98329 18.0833 11.2833 19.3833C12.5833 20.6833 14.1555 21.3333 16 21.3333C17.8444 21.3333 19.4166 20.6833 20.7166 19.3833C22.0166 18.0833 22.6666 16.5111 22.6666 14.6667H25.3333C25.3333 17 24.5777 19.0444 23.0666 20.8C21.5555 22.5555 19.6444 23.5889 17.3333 23.9V28H14.6666ZM16 16C16.3777 16 16.6944 15.8722 16.95 15.6167C17.2055 15.3611 17.3333 15.0444 17.3333 14.6667V6.66666C17.3333 6.28888 17.2055 5.97221 16.95 5.71666C16.6944 5.4611 16.3777 5.33332 16 5.33332C15.6222 5.33332 15.3055 5.4611 15.05 5.71666C14.7944 5.97221 14.6666 6.28888 14.6666 6.66666V14.6667C14.6666 15.0444 14.7944 15.3611 15.05 15.6167C15.3055 15.8722 15.6222 16 16 16Z" fill="#808080"/>
</g>
</svg>
