<svg width="32" height="32" viewBox="0 0 32 32" fill="none" xmlns="http://www.w3.org/2000/svg">
<mask id="mask0_42_13" style="mask-type:alpha" maskUnits="userSpaceOnUse" x="0" y="0" width="32" height="32">
<rect width="32" height="32" fill="#D9D9D9"/>
</mask>
<g mask="url(#mask0_42_13)">
<path d="M5.33341 25.3333C4.60008 25.3333 3.9723 25.0722 3.45008 24.55C2.92786 24.0278 2.66675 23.4 2.66675 22.6667V9.33334C2.66675 8.6 2.92786 7.97223 3.45008 7.45001C3.9723 6.92778 4.60008 6.66667 5.33341 6.66667H26.6667C27.4001 6.66667 28.0279 6.92778 28.5501 7.45001C29.0723 7.97223 29.3334 8.6 29.3334 9.33334V22.6667C29.3334 23.4 29.0723 24.0278 28.5501 24.55C28.0279 25.0722 27.4001 25.3333 26.6667 25.3333H5.33341ZM5.33341 22.6667H26.6667V9.33334H5.33341V22.6667ZM10.6667 21.3333H21.3334V18.6667H10.6667V21.3333ZM6.66675 17.3333H9.33341V14.6667H6.66675V17.3333ZM10.6667 17.3333H13.3334V14.6667H10.6667V17.3333ZM14.6667 17.3333H17.3334V14.6667H14.6667V17.3333ZM18.6667 17.3333H21.3334V14.6667H18.6667V17.3333ZM22.6667 17.3333H25.3334V14.6667H22.6667V17.3333ZM6.66675 13.3333H9.33341V10.6667H6.66675V13.3333ZM10.6667 13.3333H13.3334V10.6667H10.6667V13.3333ZM14.6667 13.3333H17.3334V10.6667H14.6667V13.3333ZM18.6667 13.3333H21.3334V10.6667H18.6667V13.3333ZM22.6667 13.3333H25.3334V10.6667H22.6667V13.3333Z" fill="#1C1B1F"/>
</g>
</svg>
