<svg width="32" height="32" viewBox="0 0 32 32" fill="none" xmlns="http://www.w3.org/2000/svg">
<mask id="mask0_39_167" style="mask-type:alpha" maskUnits="userSpaceOnUse" x="0" y="0" width="32" height="32">
<rect width="32" height="32" fill="#D9D9D9"/>
</mask>
<g mask="url(#mask0_39_167)">
<path d="M12 24C11.2667 24 10.6389 23.7389 10.1167 23.2167C9.59444 22.6944 9.33333 22.0667 9.33333 21.3333V5.33334C9.33333 4.6 9.59444 3.97223 10.1167 3.45001C10.6389 2.92778 11.2667 2.66667 12 2.66667H24C24.7333 2.66667 25.3611 2.92778 25.8833 3.45001C26.4056 3.97223 26.6667 4.6 26.6667 5.33334V21.3333C26.6667 22.0667 26.4056 22.6944 25.8833 23.2167C25.3611 23.7389 24.7333 24 24 24H12ZM12 21.3333H24V5.33334H12V21.3333ZM6.66667 29.3333C5.93333 29.3333 5.30556 29.0722 4.78333 28.55C4.26111 28.0278 4 27.4 4 26.6667V8H6.66667V26.6667H21.3333V29.3333H6.66667Z" fill="#F8F8F8"/>
</g>
</svg>
